<?xml version="1.0" encoding="UTF-8" standalone="no"?>
<svg
   width="1024"
   height="1254"
   version="1.1"
   id="svg128"
   sodipodi:docname="stationeers-rocket.svg"
   inkscape:version="1.1.2 (0a00cf5339, 2022-02-04)"
   xmlns:inkscape="http://www.inkscape.org/namespaces/inkscape"
   xmlns:sodipodi="http://sodipodi.sourceforge.net/DTD/sodipodi-0.dtd"
   xmlns="http://www.w3.org/2000/svg"
   xmlns:svg="http://www.w3.org/2000/svg">
  <sodipodi:namedview
     id="namedview130"
     pagecolor="#505050"
     bordercolor="#eeeeee"
     borderopacity="1"
     inkscape:pageshadow="0"
     inkscape:pageopacity="0"
     inkscape:pagecheckerboard="0"
     showgrid="false"
     inkscape:zoom="0.55426663"
     inkscape:cx="514.19296"
     inkscape:cy="598.98969"
     inkscape:window-width="1920"
     inkscape:window-height="1011"
     inkscape:window-x="0"
     inkscape:window-y="32"
     inkscape:window-maximized="1"
     inkscape:current-layer="svg128" />
  <path
     fill="#BDBDBD"
     transform="matrix(0.32 0 0 0.320225 0 3.8147e-06)"
     d="M3078.36 1893.95L3080.36 2155.93C3080.41 2111.89 3081.97 2067.94 3082.04 2023.94C3082.23 1905.61 3079.73 635.527 3084.23 625.763C3086.01 669.293 3084.68 713.547 3084.62 757.143L3084.45 988.595L3084.36 1724.72L3084.29 2201.82C3084.27 2312.24 3089.46 2428.33 3074.44 2537.58C3072.42 2534.29 3071.95 2533.07 3071.64 2528.82C3070.31 2510.91 3071.88 2491.18 3072.34 2473.18C3073.02 2447.01 3073.09 2421.05 3072.88 2394.88L3071.47 2070.73L3071.01 1974.37C3070.89 1955.39 3069.88 1935.54 3071.37 1916.64C3072.01 1908.48 3073.56 1899.93 3078.36 1893.95Z"
     id="path2" />
  <path
     fill="#EEEEED"
     transform="matrix(0.32 0 0 0.320225 0 3.8147e-06)"
     d="M3078.36 1893.95C3074.91 1857.6 3078.1 1818.64 3077.99 1782.07L3077.18 1543.5L3074.23 921.701L3073.35 667.848C3073.21 600.939 3074.11 535.382 3071.1 468.479C3070.76 460.877 3069.91 456.972 3074.19 451.281C3090.36 499.709 3084.95 573.215 3084.23 625.763C3079.73 635.527 3082.23 1905.61 3082.04 2023.94C3081.97 2067.94 3080.41 2111.89 3080.36 2155.93L3078.36 1893.95Z"
     id="path4" />
  <path
     fill="#093D71"
     transform="matrix(0.32 0 0 0.320225 0 3.8147e-06)"
     d="M1168.3 283.926C1172.11 278.797 1175.98 273.725 1180 268.828C1290.24 134.447 1448.11 45.9907 1604.53 45.6529C1721.91 45.3995 1849.54 106.292 1944.01 189.934C1975.93 218.197 2004.3 250.471 2032.18 284.43L2608.45 284.212L2781.55 284.104C2816 284.086 2851.98 281.379 2886.14 287.005C2926.16 293.599 2966.18 310.616 2999.66 338.474C3028.18 362.199 3051.19 391.431 3066.59 429.292C3069.41 436.236 3073 443.618 3074.19 451.281C3069.91 456.972 3070.76 460.877 3071.1 468.479C3074.11 535.382 3073.21 600.939 3073.35 667.848L3074.23 921.701L3077.18 1543.5L3077.99 1782.07C3078.1 1818.64 3074.91 1857.6 3078.36 1893.95C3073.56 1899.93 3072.01 1908.48 3071.37 1916.64C3069.88 1935.54 3070.89 1955.39 3071.01 1974.37L3071.47 2070.73L3072.88 2394.88C3073.09 2421.05 3073.02 2447.01 3072.34 2473.18C3071.88 2491.18 3070.31 2510.91 3071.64 2528.82C3071.95 2533.07 3072.42 2534.29 3074.44 2537.58C3073.03 2560.31 3068.74 2583.48 3065.06 2605.8C3052.54 2681.75 3034.81 2754.21 3011.21 2826.11C2879.41 3224.71 2600.62 3517.87 2281.79 3683.14C1864.72 3899.33 1366.29 3907.23 945.832 3698.06C889.036 3669.81 832.349 3638.02 778.901 3601.19C659.148 3525.99 548.332 3422.22 453.122 3306.26C293.222 3111.51 171.448 2862.31 131.755 2588.1C117.368 2488.72 114.376 2391.26 114.23 2290.57L114.046 1031.69L114.579 663.687L114.811 556.79C114.898 533.944 114.008 509.571 116.883 486.98C122.641 441.747 141.061 402.005 167.471 369.924C201.414 328.692 246.87 301.06 293.763 290.385C335.629 280.854 379.499 283.74 421.9 283.781L586.157 284.028L1168.3 283.926Z"
     id="path6" />
  <path
     fill="#F2EBE1"
     transform="matrix(0.32 0 0 0.320225 0 3.8147e-06)"
     d="M2531.29 874.289C2541.95 880.383 2556.13 886.003 2564.55 896.093L2565.51 900.777C2562.41 906.135 2559.54 907.015 2554.76 909.807L2552.37 908.317C2555.91 888.356 2534.26 890.722 2527.83 877.228L2531.29 874.289Z"
     id="path8" />
  <path
     fill="#F2EBE1"
     transform="matrix(0.32 0 0 0.320225 0 3.8147e-06)"
     d="M770.33 832.69C763.731 822.115 759.42 809.446 753.918 797.922L754.999 794.18C772.44 822.198 790.282 841.525 813.987 861.286L811.226 862.885C797.264 858.895 782.352 842.122 770.33 832.69Z"
     id="path10" />
  <path
     fill="#EEEEED"
     transform="matrix(0.32 0 0 0.320225 0 3.8147e-06)"
     d="M602.79 887.018C640.377 867.317 673.4 848.096 698.498 806.879C706.385 793.926 712.748 778.227 721.821 766.575C725.212 762.219 727.64 761.341 732.435 761.07C743.339 767.499 748.83 782.086 754.999 794.18L753.918 797.922C759.42 809.446 763.731 822.115 770.33 832.69C767.326 832.222 764.052 831.62 761.028 831.979C751.776 833.077 737.547 841.731 728.241 845.414C705.074 854.583 681.242 861.73 658.217 871.277C644.946 876.781 632.312 884.026 618.908 889.184C613.515 889.169 608.13 887.936 602.79 887.018Z"
     id="path12" />
  <path
     fill="#01295A"
     transform="matrix(0.32 0 0 0.320225 0 3.8147e-06)"
     d="M1769.15 484.466L1772.64 483.446C1791.67 500.92 1808.2 526.882 1822.15 550.327C1878.12 644.36 1909.62 753.376 1930.05 866.148C1928.13 868.51 1929.15 867.457 1927.01 869.328L1926.13 877.1L1927.57 876.99L1930.74 871.347L1932.43 872.09C1932.99 875.596 1933.06 877.861 1933.1 881.358C1933.17 888.822 1933.6 894.829 1937.84 900.549L1937.89 904.137C1937.92 906.546 1937.8 909.149 1937.9 911.526C1938.32 921.068 1943.19 933.403 1944.84 943.405C1945.89 949.755 1945.72 956.233 1946.81 962.526C1948.91 974.699 1952.99 986.94 1953.96 999.31C1955.04 1012.97 1953.97 1026.48 1955.48 1040.25C1957.28 1056.8 1962.4 1075.91 1961.39 1092.41L1957.01 1095.91C1957.3 1099.89 1956.94 1099.64 1958.98 1102.93C1960.85 1105.95 1961.95 1108.67 1961.84 1112.56C1961.75 1115.52 1960.22 1118.57 1959.24 1121.16C1950.79 1143.49 1979.16 1177.87 1962.98 1205.32L1962.18 1191.76L1962.22 1194.12C1962.21 1194.13 1962.2 1194.14 1962.19 1194.16C1960.75 1201.94 1962.75 1207.15 1959.08 1214.1L1955.38 1216.42L1954.82 1214.97L1956.27 1213.35C1960.7 1194.92 1956.69 1166.23 1955.64 1146.84C1948.56 1015.76 1928.34 852.06 1888.65 730.628C1879.06 697.493 1864.03 647.176 1847.62 619.263C1832.48 572.196 1796.55 522.024 1769.15 484.466Z"
     id="path14" />
  <path
     fill="#01295A"
     transform="matrix(0.32 0 0 0.320225 0 3.8147e-06)"
     d="M1959.16 1993.39C1959.23 1992.68 1959.3 1991.97 1959.36 1991.26C1961.36 1967.24 1956.46 1839.64 1962.33 1829.23C1966.48 1839.41 1971.58 1921.18 1968.62 1932.33C1965.86 1929.52 1965.89 1928.42 1964.62 1924.47L1966.3 1924.42L1964.47 1922.17L1966.32 1917.73C1965.94 1916.83 1965.54 1915.95 1965.19 1915.04C1962.77 1908.78 1963.65 1898.86 1963.65 1892C1962.93 1922.5 1963.12 1953 1963.17 1983.5C1963.21 2001.74 1962.41 2020.64 1963.85 2038.79C1963.99 2013.96 1961.05 1959.93 1965.33 1938.2L1964.8 1939.91L1968.77 1938.52C1969.81 2079.44 1968.05 2220.19 1968.14 2361.09C1968.16 2389.21 1970.5 2594.04 1967.77 2604.83C1967.56 2605.66 1966.86 2606.17 1966.4 2606.83L1964.83 2606.23C1964.14 2600.14 1964.1 2594.56 1964.31 2588.43C1962.42 2590.49 1962.9 2593.91 1962.76 2596.93C1962.22 2609.26 1966.96 2639.11 1960.24 2647.65C1946.87 2651.5 1931.92 2650.64 1918.18 2651.2C1876.89 2652.89 1835.44 2652.11 1794.12 2652.12L1445.2 2652.1C1431.87 2652.11 1355.63 2649.4 1347.69 2652.22L1347.29 2650.91C1486.06 2647.09 1625.07 2649.12 1763.87 2649.14L1876.37 2649.24C1903.13 2649.26 1931.27 2650.49 1957.81 2646.12C1960.73 2627.77 1958.79 2605.61 1958.66 2586.76L1958.35 2488.75L1958.59 2163.16C1958.63 2106.94 1956.7 2049.48 1959.16 1993.39Z"
     id="path16" />
  <defs
     id="defs23">
    <linearGradient
       id="gradient_0"
       gradientUnits="userSpaceOnUse"
       x1="2487.7224"
       y1="978.60028"
       x2="2441.7976"
       y2="818.48749">
      <stop
         offset="0"
         stop-color="#BEBEBC"
         id="stop18" />
      <stop
         offset="1"
         stop-color="#FBFAF8"
         id="stop20" />
    </linearGradient>
  </defs>
  <path
     fill="url(#gradient_0)"
     transform="matrix(0.32 0 0 0.320225 0 3.8147e-06)"
     d="M2554.76 909.807C2531.41 923.774 2506.82 939.779 2491.06 965.994C2484.72 976.555 2479.71 989.433 2471.54 997.991C2459.54 994.054 2438.77 949.71 2425.32 938.456C2416.27 930.885 2374.89 907.286 2372.21 899.345C2388.68 883.581 2410.64 876.816 2427.25 861.148C2443.79 845.547 2455.08 820.165 2469.7 801.801C2472.68 801.418 2472.9 801.806 2474.97 804.395C2479.48 810.037 2482.36 818.693 2486.18 825.178C2498.3 845.799 2513.73 861.058 2531.29 874.289L2527.83 877.228C2534.26 890.722 2555.91 888.356 2552.37 908.317L2554.76 909.807Z"
     id="path25" />
  <path
     fill="#01295A"
     transform="matrix(0.32 0 0 0.320225 0 3.8147e-06)"
     d="M2271.86 1444.17C2297.39 1441.82 2419.43 1562.5 2445.03 1589.41C2480 1626.16 2509.95 1668.31 2543.97 1706.06L2538.85 1705.48L2539.08 1708.68C2543.15 1711.47 2549.36 1709.19 2550.11 1715.01C2550.31 1716.51 2550.01 1720.01 2549.9 1721.6C2562.54 1736.23 2570.55 1746.94 2578.3 1765.97L2579.42 1760.31C2595.06 1777.94 2604.65 1809.55 2620.16 1830.09C2619.8 1832.43 2619.03 1834.73 2619.09 1837.12C2619.13 1839.23 2640.34 1884.21 2642.61 1888.46C2643.69 1890.47 2644.93 1890.63 2646.88 1890.83C2647.81 1890.92 2649.14 1890.7 2650.09 1890.57C2661.66 1910.67 2658.79 1925.96 2666.65 1941.68L2665.09 1929.44L2666.43 1928.55C2666.62 1929.05 2666.8 1929.56 2667.01 1930.04C2668.52 1933.42 2667.41 1930.95 2669.64 1934.08C2676.48 1943.71 2670.9 1957.21 2676.39 1967.45L2677.22 1959.4L2679.03 1959.22C2689.99 1982.57 2692.76 2039.16 2705.21 2054.12L2708.65 2054.87C2711.84 2063.77 2711.58 2074.94 2713.22 2084.48C2717.09 2106.93 2724.11 2145.34 2731.04 2165.56C2732.62 2170.17 2732.43 2175.62 2732.44 2180.56L2736.27 2174.31L2738.29 2176.99L2738.27 2176.75L2738.35 2178.71C2738.54 2184.18 2738.43 2188.05 2737.05 2193.24C2736.26 2189.62 2735.74 2186.11 2735.32 2182.39C2733.59 2185.54 2732.94 2186.08 2733.53 2190C2748.01 2286.53 2749.97 2378.75 2742.93 2476.57C2741.57 2495.5 2741.89 2520.4 2734.9 2537.4L2737.98 2541.28C2734.41 2558.52 2713.59 2672.82 2708.5 2676.43C2707.63 2677.05 2705.77 2677.7 2704.77 2678.08L2704.58 2681.33L2707.37 2684.58C2703.84 2697.4 2685.95 2762.38 2682.17 2769.79C2680.45 2773.15 2676.35 2773.45 2675.05 2777.9C2673.81 2782.16 2674.14 2786.13 2674.33 2790.55C2673.43 2792.43 2672.72 2793.58 2671.3 2794.91C2669.41 2796.67 2667.93 2798.14 2666.55 2800.6C2662.11 2808.54 2659.54 2819.35 2655.86 2828.07C2646.07 2851.28 2633.71 2874.03 2626.11 2898.41C2623.46 2900.28 2620.23 2901.56 2618.88 2904.95C2613.55 2918.36 2602.02 2929.44 2597.6 2942.2C2595.47 2948.37 2599.58 2950.74 2593.05 2954.8C2591.54 2955.74 2588.8 2956.15 2587.22 2956.54C2586.18 2959.5 2585.4 2962.33 2584.72 2965.45L2582.27 2968.23L2579.89 2966.62C2578.53 2972.17 2578.26 2976.02 2578.39 2981.82L2576.36 2983.72C2554.27 3004.74 2542.65 3037.74 2521.04 3058.37C2503.76 3074.88 2510.62 3076.79 2502.64 3089.02C2495.68 3099.71 2480.75 3108.73 2471.81 3117.7C2457.59 3131.95 2446.12 3150.53 2431.79 3164.85C2425.21 3171.42 2417.9 3176.75 2411.25 3183.19C2388.78 3204.95 2367.02 3227.25 2343.37 3247.2C2255.71 3321.14 2136.29 3397.66 2033.48 3433.8C2033.55 3437.65 2034.02 3437.16 2036.11 3439.74C2032.03 3440.6 2031.25 3439.29 2027.48 3438.07C2027.28 3438 2027.07 3438.16 2026.86 3438.16C2025.88 3438.19 2024.89 3438.14 2023.91 3438.18C2020.7 3438.28 1953.28 3465.41 1947.12 3468.91C1944.4 3470.46 1945.59 3469.94 1942.35 3470.52C1939.6 3468.37 1939.19 3466.76 1935.67 3468.15C1934.7 3468.53 1933.83 3469.21 1932.91 3469.73C1919.45 3477.22 1903.58 3475.97 1889.81 3482.37C1884.53 3484.82 1873.39 3489.8 1867.95 3489.34L1868.82 3488.81C1809.53 3501.7 1749.31 3510.86 1689.12 3514.95C1671.35 3516.16 1653.46 3517.42 1635.66 3517.62C1616.04 3517.86 1594.2 3515.2 1575.03 3520.82L1575.62 3521.06C1570.4 3522.2 1565.87 3523.29 1560.57 3522.42L1562.57 3519.92L1559.19 3518.88L1562.97 3517.74C1542.63 3516.53 1478.26 3508.53 1463.08 3514.94C1460.17 3516.17 1458.43 3515.87 1455.47 3515.21L1453.32 3513.51C1457.18 3512.71 1460.03 3512.75 1463.91 3513.44L1466.61 3509.46L1466 3513.05L1466.86 3511.17C1465.89 3511.19 1464.91 3511.22 1463.94 3511.22C1460.79 3511.24 1460.19 3509.9 1457.49 3509.13C1449.05 3506.72 1424.13 3505.59 1413.22 3503.85C1310.86 3487.5 1209.82 3455.23 1113.27 3410.68C1102.37 3405.65 1081.64 3398.94 1073.22 3389.44C1071.83 3387.87 1070.96 3385.7 1070.15 3383.65C1128.65 3412.36 1187.03 3438.41 1248.01 3458.31C1459.51 3527.31 1691.02 3532.06 1904.42 3472.54C2187.95 3393.45 2459.2 3199.45 2616.42 2893.31C2727.36 2677.27 2771.29 2413.96 2724.44 2163.46C2679.36 1922.37 2561.96 1713.63 2405.89 1558.84C2363.33 1516.63 2318.23 1479.7 2271.86 1444.17Z"
     id="path27" />
  <path
     fill="#01295A"
     transform="matrix(0.32 0 0 0.320225 0 3.8147e-06)"
     d="M931.306 1530.23C929.734 1542.91 917.739 1550.07 909.679 1557.3C896.503 1569.11 822.56 1644.35 820.632 1655.56C820.152 1658.36 819.562 1660.54 818.648 1663.13C815.993 1664.06 814.183 1664.34 811.429 1664.06L812.939 1666.86C808.283 1685.45 786.104 1689.52 783.175 1709.24C782.799 1711.77 783.04 1710.8 781.535 1713.04L778.757 1711.25C776.405 1714.05 775.251 1716.8 773.645 1720.25C767.073 1734.36 757.605 1747.3 747.946 1758.37L751.095 1757.41L747.975 1760.34L749.143 1764.05C742.723 1776.64 734.149 1787 727.625 1799.44C711.394 1830.38 695.233 1863.19 682.021 1896.19C675.291 1913 670.159 1931.01 663.319 1947.57C661.099 1952.95 657.696 1957.52 655.701 1963.05C648.105 1984.1 645.489 2007.68 636.858 2028.44C630.933 2042.68 631.97 2059.64 627.981 2074.64C626.066 2081.84 622.222 2078.73 620.092 2084.85C621.176 2087.03 622.626 2088.99 623.344 2091.38C625.072 2097.14 618.16 2123.36 617.237 2130.28C616.13 2138.56 616.175 2147.24 614.508 2155.39C612.652 2164.46 609.206 2172.93 607.57 2182.06C604.462 2199.42 604.841 2218.94 604.373 2236.73C603.473 2270.95 602.135 2306.06 604.714 2340.17C606.655 2365.85 611.097 2390.86 614.621 2416.23C616.553 2430.14 616.303 2447.37 620.218 2460.44L627.33 2465.93C627.54 2469.24 628.313 2471.05 626.73 2473.86L622.98 2470.51C622.644 2478 644.662 2564.55 648.311 2569.7C651.17 2573.73 654.269 2570.88 656.231 2577.35C653.854 2578.56 653.465 2577.73 651.106 2576.79C653.524 2588.63 657.939 2599.64 661.976 2610.76L662.769 2607.96L663.56 2605.3C666.493 2606.65 666.911 2608.63 668.247 2612.06C670.638 2618.18 669.683 2624.52 668.874 2630.96C669.297 2631.57 669.734 2632.17 670.142 2632.79C681.207 2649.69 682.29 2668.47 690.778 2686.16C695.76 2696.55 703.956 2703.79 706.806 2715.58C708.281 2721.68 710.108 2726.03 713.072 2731.24L716.323 2732.78C714.544 2728.02 711.914 2724.11 713.071 2718.95C720.821 2727.2 728.615 2745.9 730.046 2758.36L731.734 2759.23C734.393 2760.63 738.014 2762.09 739.861 2764.95C743.048 2769.89 745.314 2776.44 748.346 2781.67C758.058 2798.44 768.822 2812.97 776.599 2831.38L779.413 2838.02C782.389 2840.07 785.359 2842.18 788.267 2844.38C797.149 2851.09 836.802 2909.54 843.723 2922.21C846.252 2920.58 845.091 2921.51 847.226 2919.45C860.448 2934.28 873.48 2952.18 887.783 2965.15C892.553 2969.48 914.747 2998.81 916.198 2998.69L911.231 2990.61L911.767 2988.19L913.58 2990.23C927.003 3005.15 942.946 3015.3 955.346 3031.71C958.904 3036.41 963.961 3041.79 968.302 3045.26L967.869 3039.58C972.187 3041.73 976.144 3046.36 979.867 3049.78L979.797 3051.51C977.047 3050.69 974.964 3049.63 972.478 3047.98C975.778 3052.8 979.816 3057.02 985.137 3058.09C985.811 3058.22 986.5 3057.99 987.181 3057.94L986.226 3054.61L986.564 3053.51L987.579 3056.2L990.028 3054.05L989.092 3057.8C999.544 3075.85 998.352 3065.2 1010.07 3074.83L1007.65 3074.49C1015.65 3084.45 1025.72 3090.78 1035.82 3097.04C1038.15 3095.16 1037.03 3096.41 1038.92 3092.97C1041.01 3094.93 1042.56 3096.63 1044.26 3099.11C1053.76 3112.89 1104.49 3141.83 1119.75 3149.21C1127.72 3153.07 1136.35 3155.51 1144.65 3158.09C1153.97 3160.99 1161.72 3170.69 1170.74 3175.37C1189.39 3185.04 1209.89 3192.95 1229.19 3200.65C1259.29 3212.65 1290.22 3223.14 1320.9 3232.69C1335.92 3237.36 1352.19 3239.2 1366.5 3246.44C1369.06 3245.54 1371.2 3244.55 1373.65 3243.21C1376.6 3241.59 1378.59 3241.57 1381.84 3241.94L1382.84 3243.34L1377.3 3246.84L1377.83 3248.27C1383.67 3250.26 1387.59 3251.44 1393.62 3250.64C1403.29 3249.35 1427.32 3258.67 1438.57 3260.41C1456.23 3263.15 1501.73 3259.82 1514.3 3265.31C1506.82 3267.29 1497.95 3265.95 1490.29 3265.74C1491.93 3266.79 1490.74 3266.25 1493.47 3266.34C1496.03 3266.43 1497.52 3266.74 1499.91 3267.37C1517.62 3272.03 1539.23 3270.51 1557.36 3270.95C1604.27 3272.09 1653.03 3273.91 1699.82 3268.86C1720.92 3266.58 1742.28 3260.78 1763.31 3257.06L1760.33 3256.86C1765.53 3256.41 1769.51 3257.82 1774.47 3259.59C1774.86 3259.37 1775.25 3259.14 1775.65 3258.93C1790.14 3251.4 1828.31 3252.14 1837.12 3245.42C1840.22 3243.06 1840.15 3240.96 1844.24 3239.15L1844.03 3243.51L1846.34 3244L1845.51 3239.23L1848.84 3244.48L1856.17 3240.41L1856.56 3239.11L1852.48 3238.64C1858.2 3233.38 1865.57 3231.5 1872.55 3232.39C1873.07 3232.45 1873.58 3232.49 1874.1 3232.57C1881.26 3233.61 1882.95 3230.48 1889.61 3228.92L1888.87 3229.6C1898.59 3227.12 1907.5 3224.81 1916.61 3219.87C1918.42 3218.88 1920.26 3217.97 1922.08 3216.99C1925 3218.73 1923.81 3217.56 1925.74 3220.33C1934.83 3218.62 1940.46 3209.4 1949.04 3206.06L1949.3 3207.95L1947.42 3211C1952 3209.89 1965.17 3206.86 1968.48 3203.01L1961.05 3202.18C1964.81 3198.71 1970.71 3198.73 1975.38 3197.97L1974.59 3198.44C1999.6 3192.09 2068.46 3160.56 2088.32 3144.65C2092.95 3140.94 2099.01 3138.89 2104.2 3136.56L2095.33 3138.41C2099.4 3134.14 2103.56 3131.32 2108.3 3128.29C2112.21 3129.41 2110.39 3128.59 2113.79 3130.66C2123.99 3126.39 2134.42 3119.08 2142.36 3110.18C2146.42 3105.64 2150.7 3101.81 2156.09 3100.26C2183.3 3092.42 2271.77 3014.99 2296.01 2989.91C2305.32 2980.27 2345.02 2936.65 2352.62 2932.25C2353.5 2931.74 2356.37 2931.56 2357.42 2931.58C2332.56 2964.22 2300.81 2994.14 2271.31 3020.29C2025.55 3238.28 1709.17 3319.58 1410.66 3261.1C1149.06 3209.86 893.968 3051.04 736.557 2784.31C622.436 2590.94 577.487 2367.5 608.729 2131.88C640.772 1890.22 771.134 1671.06 931.306 1530.23Z"
     id="path29" />
  <defs
     id="defs36">
    <linearGradient
       id="gradient_1"
       gradientUnits="userSpaceOnUse"
       x1="765.22687"
       y1="1019.0706"
       x2="719.14301"
       y2="844.97089">
      <stop
         offset="0"
         stop-color="#BAB9B7"
         id="stop31" />
      <stop
         offset="1"
         stop-color="#E8E9E8"
         id="stop33" />
    </linearGradient>
  </defs>
  <path
     fill="url(#gradient_1)"
     transform="matrix(0.32 0 0 0.320225 0 3.8147e-06)"
     d="M618.908 889.184C632.312 884.026 644.946 876.781 658.217 871.277C681.242 861.73 705.074 854.583 728.241 845.414C737.547 841.731 751.776 833.077 761.028 831.979C764.052 831.62 767.326 832.222 770.33 832.69C782.352 842.122 797.264 858.895 811.226 862.885L813.987 861.286C826.839 868.735 865.283 884.46 870.109 900.015C852.715 919.773 811.832 934.498 788.3 958.67C768.666 978.838 746.741 1028.27 729.333 1040.02C721.716 1038.37 717.35 1029.38 713.165 1021.99C689.743 980.623 673.656 957.157 636.981 932.473C627.828 926.312 618.092 921.363 609.032 915.098C605.349 914.516 597.071 910.623 594.393 907.308C591.467 903.685 591.632 902.062 591.508 897.314C593.918 891.515 598.254 889.748 602.79 887.018C608.13 887.936 613.515 889.169 618.908 889.184Z"
     id="path38" />
  <path
     fill="#F2EBE1"
     transform="matrix(0.32 0 0 0.320225 0 3.8147e-06)"
     d="M609.032 915.098C605.349 914.516 597.071 910.623 594.393 907.308C591.467 903.685 591.632 902.062 591.508 897.314C593.918 891.515 598.254 889.748 602.79 887.018C608.13 887.936 613.515 889.169 618.908 889.184C614.705 891.894 610.1 893.854 607.988 899.382C610.61 907.451 622.34 913.9 628.55 918.558L627.362 919.68C621.377 918.036 615.132 915.619 609.032 915.098Z"
     id="path40" />
  <path
     fill="#01295A"
     transform="matrix(0.32 0 0 0.320225 0 3.8147e-06)"
     d="M236.811 2487.85C234.868 2456.17 232.9 2424.47 232.157 2392.71C228.914 2254.14 231.437 2114.62 231.436 1975.97L231.735 1186.93L231.812 735.536L231.842 593.693C231.859 566.359 230.788 538.16 232.988 510.981C235.053 485.487 243.327 464.597 257.773 446.189C279.369 418.67 309.609 404.005 340.541 403.308C350.844 404.466 361.099 404.67 371.439 404.853C358.499 406.253 341.086 403.72 329.122 409.917L334.895 409.082C301.633 418.213 272.313 435.419 253.653 472.047C247.562 484.003 242.868 499.742 242.363 513.964C241.44 539.956 242.817 566.715 242.894 592.779L243.032 757.576L242.916 1309.86C242.712 1365.76 242.017 1421.72 242.413 1477.61C242.729 1522.39 244.266 1567.61 243.531 1612.32L242.072 1768.91C241.809 1793.53 239.554 1829.8 241.892 1853.07C244.303 1877.05 241.914 1902.93 241.586 1927.04C241.114 1961.65 242 1996.39 241.756 2031.05L241.712 2287.98C241.824 2340.73 242.873 2393.34 244.57 2446.05C245.223 2466.33 244.963 2487.24 246.525 2507.38C246.748 2510.26 247.715 2512.47 248.595 2515.09C258.008 2543.16 258.763 2576.7 264.047 2606.32C269.559 2637.2 278.053 2665.33 285.496 2695.39C288.518 2707.59 289.16 2720.59 292.685 2732.68C296.863 2747.02 324.309 2829.18 329.638 2837.29C331.314 2839.83 331.55 2843.78 332.06 2846.88L337.972 2854.03L337.621 2856.52L335.197 2857.77C335.826 2861.3 336.92 2862.7 338.591 2865.71C350.058 2886.3 359.009 2909.51 368.994 2931.25C382.178 2959.96 396.381 2987.63 411.165 3015.12C417.288 3026.51 419.624 3036.08 428.651 3044.62C433.104 3048.83 445.852 3076.05 450.696 3083.79C473.345 3119.99 497.186 3158.27 523.287 3190.77C543.315 3215.71 563.642 3242.34 584.857 3265.65C598.291 3280.41 612.807 3293.64 626.569 3307.93C634.126 3315.78 640.91 3325.81 648.679 3333.07C654.842 3338.83 661.766 3343.42 667.937 3349.2C676.24 3356.98 683.64 3366.3 692.082 3374.16C720.159 3400.3 750.5 3422.48 778.057 3449.3C780.998 3452.16 782.712 3452.27 786.209 3452.88C798.676 3455.05 827.588 3482.94 841.034 3491.86C890.385 3524.6 1008.12 3600.26 1060.76 3613.43C1068.61 3615.39 1076.16 3620.94 1083.68 3624.43C1101.45 3632.65 1119.57 3640.72 1137.83 3647.11C1206.75 3671.21 1278.13 3690.16 1348.84 3704.26C1412.09 3716.87 1478.23 3720.44 1542.18 3722.27C1569.12 3723.04 1595.84 3723.41 1622.79 3722.74C1631.77 3722.51 1640.94 3720.53 1649.82 3720.63C1656.23 3720.71 1662.63 3722.43 1669.04 3722.28C1683.35 3721.93 1700.43 3717.82 1715.35 3716.63C1963.35 3696.92 2235.03 3589.71 2443.12 3423.65C2509.79 3370.44 2560.87 3323.71 2620.29 3258.85C2627.94 3250.51 2636.84 3243.61 2644.17 3234.85C2652.41 3225.01 2659.11 3213.07 2667.3 3203.04C2707.73 3153.46 2746.45 3100.9 2779.7 3043.71C2796.74 3014.42 2812.99 2984.58 2828.18 2953.8C2836.7 2936.52 2844.08 2917.47 2853.41 2900.93C2862.26 2885.24 2867.91 2864.96 2874.53 2847.61C2884.21 2822.26 2894.27 2797.68 2902.61 2771.55C2924.03 2704.45 2936.53 2634.9 2948.35 2564.62C2952.18 2541.82 2950.87 2516.03 2955.95 2494.1L2958.34 2497.28C2960.47 2493.82 2960.66 2323.35 2962.94 2299.38C2970.71 2340.57 2961.94 2400.98 2965.75 2446.08C2966.06 2492.99 2958.86 2542.64 2951.72 2588.67C2914.7 2827.08 2812.33 3037.87 2674.1 3209.49C2397.38 3553.08 1983.75 3730.9 1593.88 3733.8C1410.25 3735.17 1227.21 3698.47 1054.48 3621.72C1025.08 3608.66 996.221 3594.73 967.624 3579.16C950.065 3569.61 932.537 3557.88 914.592 3549.7C902.16 3538.06 876.175 3525.1 861.381 3515.6C829.542 3495.16 798.286 3473.64 767.823 3450.25C730.282 3421.42 693.435 3390.4 658.72 3356.66C639.304 3337.8 621.019 3315.52 600.889 3298.01L598.393 3295.86C573.791 3264.56 546.283 3236.48 521.702 3204.82C452.744 3116 396.741 3018.22 347.171 2912.11C340.446 2890.5 329.159 2869.65 321.293 2848.34C300.74 2792.66 283.548 2737.15 268.9 2678.75C253.761 2616.45 243.065 2552.39 236.811 2487.85Z"
     id="path42" />
  <defs
     id="defs49">
    <linearGradient
       id="gradient_2"
       gradientUnits="userSpaceOnUse"
       x1="1642.4193"
       y1="3118.5442"
       x2="1489.7598"
       y2="2710.7451">
      <stop
         offset="0"
         stop-color="#808192"
         id="stop44" />
      <stop
         offset="1"
         stop-color="#AAACC1"
         id="stop46" />
    </linearGradient>
  </defs>
  <path
     fill="url(#gradient_2)"
     transform="matrix(0.32 0 0 0.320225 0 3.8147e-06)"
     d="M1474.68 2713.59L1725.91 2713.9C1773.02 2810.44 1814.61 2912.21 1858.53 3011.1C1820.18 3016.86 1761.9 3012.91 1721.48 3012.85C1594.75 3012.81 1467.9 3014.46 1341.18 3012.91C1362.46 2959.48 1387.31 2907.52 1410.59 2855.28C1431.58 2808.16 1451.48 2759.09 1474.68 2713.59Z"
     id="path51" />
  <path
     fill="#BDBDBD"
     transform="matrix(0.32 0 0 0.320225 0 3.8147e-06)"
     d="M2967.94 510.763C2972.45 525.038 2969.8 746.156 2969.87 780.228L2972.36 1806.25L2973.1 2142.65C2973.27 2198.91 2970.28 2257.75 2974.64 2313.63L2974.4 2313.43C2975.23 2318.66 2976.22 2323.84 2977.09 2329.04C2979.34 2342.46 2973.87 2357.97 2976.46 2371.4L2978.88 2371.79L2984.29 2366.28L2986.36 2367.22C2986.89 2372.96 2987.47 2378.66 2988.11 2384.38C2990.57 2386.63 2993.06 2388.27 2995.79 2389.97L2996.23 2391.24C2993.5 2392.42 2991.16 2392.59 2989.36 2395.46C2989.97 2405.85 3002.01 2417 2999.23 2425.68L2998.15 2421.41L2995.22 2422.8C2994.3 2427.26 2994.58 2426.89 2996.46 2430.61C2999.19 2436.03 3004.03 2440.05 3004.14 2446.47L3000.92 2450.39L3001.13 2453.49C3004.62 2455.03 3002.82 2454.44 3006.54 2455.23C3007.29 2465.95 2999.19 2463.21 3005.03 2475.34C3013.71 2493.37 3000.85 2509.27 3019.83 2522.36C3025.84 2520 3018.94 2523.07 3023.78 2519.88C3027.54 2517.4 3028.53 2521.15 3031.4 2515.13C3029.76 2510.71 3027.99 2507.18 3025.73 2503.24C3026.53 2500.32 3025.89 2501.39 3027.34 2499.74C3028.71 2503.17 3028.14 2503.65 3031.26 2504.97L3033.38 2498.07C3036.77 2497.41 3037.13 2497.59 3040.29 2499.32L3042.78 2506.56L3045.47 2506.84C3046.44 2499.44 3046.36 2497.36 3051.96 2493.01C3052.58 2492.52 3054.33 2491.52 3054.99 2491.11C3058.86 2488.66 3060.56 2484.69 3062.69 2480.24L3065.85 2481.52C3070.8 2535.67 3038.96 2692.76 3025.1 2747.87C3020.91 2764.56 3013.89 2780.39 3010.27 2795.78C3008.7 2802.43 3003.78 2819.04 3008.79 2824.46C3009.48 2825.21 3010.4 2825.56 3011.21 2826.11C2879.41 3224.71 2600.62 3517.87 2281.79 3683.14C1864.72 3899.33 1366.29 3907.23 945.832 3698.06C889.036 3669.81 832.349 3638.02 778.901 3601.19C781.561 3601.15 782.526 3600.91 785.165 3599.77L784.963 3596.88C782.638 3594.26 781.279 3593.17 778.264 3591.82C757.92 3582.72 742.141 3561.21 722.952 3549.39C718.973 3546.94 717.083 3546.62 712.949 3548.33C708.717 3546.18 706.306 3544.14 702.893 3540.39C700.667 3525.88 690.066 3528.74 682.67 3519.95C666.58 3500.82 646.946 3487.57 629.078 3471.24C617.863 3460.99 607.977 3448.69 597.063 3437.97C579.477 3420.69 559.225 3404.56 543.728 3384.44C541.325 3381.32 539.992 3378.84 539.133 3374.6L542.2 3374.31C542.212 3373.52 542.33 3372.72 542.236 3371.93C542.088 3370.7 541.732 3369.52 541.48 3368.32C545.47 3371.35 550.593 3376.53 555.371 3375.93C556.107 3372.44 556.85 3371.38 559.101 3369.09C561.127 3368.68 562.424 3368.46 564.487 3367.81C568.955 3366.41 570.194 3365.24 572.549 3360.49C576.773 3364.64 584.462 3368.07 589.739 3369.59L591.256 3367.62L589.486 3360.92L591.066 3359.13C593.589 3359.33 595.742 3359.62 598.236 3358.94C600.43 3358.34 599.084 3358.32 601.642 3359.13L599.62 3368.02C602.509 3369.21 602.862 3367.99 605.485 3366.4C608.376 3358.56 610.049 3348.87 610.008 3340.25C607.698 3334.39 607.556 3334.97 602.489 3332.69C602.785 3327.83 602.701 3328.98 605.313 3326C619.317 3332.52 676.428 3390.21 692.78 3404.86C725.668 3434.31 880.379 3547.31 913.072 3553.19L914.592 3549.7C932.537 3557.88 950.065 3569.61 967.624 3579.16C996.221 3594.73 1025.08 3608.66 1054.48 3621.72C1227.21 3698.47 1410.25 3735.17 1593.88 3733.8C1983.75 3730.9 2397.38 3553.08 2674.1 3209.49C2812.33 3037.87 2914.7 2827.08 2951.72 2588.67C2958.86 2542.64 2966.06 2492.99 2965.75 2446.08C2970.98 2400.94 2967.59 2335.9 2967.57 2288.82L2967.43 1971.54L2967.37 890.691L2967.38 626.531C2967.37 594.37 2964.28 540.098 2967.94 510.763Z"
     id="path53" />
  <defs
     id="defs60">
    <linearGradient
       id="gradient_3"
       gradientUnits="userSpaceOnUse"
       x1="1686.3223"
       y1="1853.2179"
       x2="1513.9836"
       y2="1178.6727">
      <stop
         offset="0"
         stop-color="#7B7C8E"
         id="stop55" />
      <stop
         offset="1"
         stop-color="#B4B6CB"
         id="stop57" />
    </linearGradient>
  </defs>
  <path
     fill="url(#gradient_3)"
     transform="matrix(0.32 0 0 0.320225 0 3.8147e-06)"
     d="M1226.99 1279.93C1313.91 1282.78 1401.46 1280.14 1488.46 1280.14L1972.35 1279.74C1985.46 1290.66 1997.31 1303.45 2009.37 1316L2009.41 1713.9C2002.26 1722.52 1994.21 1730.33 1986.61 1738.35L1972.21 1751.81C1941.54 1750.21 1910.59 1751.12 1879.87 1751.08L1715.59 1750.92L1227.39 1751.43C1214.77 1740.61 1202.96 1728.35 1191.78 1715.42L1191.8 1315.03C1202.57 1302.55 1214.54 1289.79 1226.99 1279.93Z"
     id="path62" />
  <defs
     id="defs69">
    <linearGradient
       id="gradient_4"
       gradientUnits="userSpaceOnUse"
       x1="1656.0052"
       y1="1315.5829"
       x2="1432.9094"
       y2="439.72729">
      <stop
         offset="0"
         stop-color="#B7B7B6"
         id="stop64" />
      <stop
         offset="1"
         stop-color="#FDFDFC"
         id="stop66" />
    </linearGradient>
  </defs>
  <path
     fill="url(#gradient_4)"
     transform="matrix(0.32 0 0 0.320225 0 3.8147e-06)"
     d="M1553.84 390.301C1588.93 375.684 1606.57 374.65 1642.09 388.195L1652.98 392.976C1702.55 415.279 1729.57 444.502 1769.15 484.466C1796.55 522.024 1832.48 572.196 1847.62 619.263C1864.03 647.176 1879.06 697.493 1888.65 730.628C1928.34 852.06 1948.56 1015.76 1955.64 1146.84C1956.69 1166.23 1960.7 1194.92 1956.27 1213.35C1937.37 1209.11 1914.4 1211.99 1895.14 1212.08L1776.16 1212.29L1428.58 1212.29C1366.58 1212.33 1304.14 1214.29 1242.2 1211.79L1242.37 1179.81C1244.06 1161.4 1243.93 1142.43 1245.05 1123.9C1247.03 1091.29 1250.31 1058.29 1253.66 1025.85C1270.53 862.721 1308.15 702.994 1379.15 562.747C1393.76 541.014 1405.45 514.855 1423.32 496.763C1438.67 473.082 1459.17 453.663 1479.05 436.046L1490.79 426.695L1498.37 420.942L1514.15 410.399L1536.83 397.763C1541.18 395.478 1545.68 393.662 1550.14 391.722L1553.84 390.301Z"
     id="path71" />
  <path
     fill="#EEEEED"
     transform="matrix(0.32 0 0 0.320225 0 3.8147e-06)"
     d="M1642.09 388.195L1652.98 392.976L1647.1 398.142C1642.87 397.89 1642 397.924 1638.5 395.129L1638.38 391.675L1642.09 388.195Z"
     id="path73" />
  <path
     fill="#EEEEED"
     transform="matrix(0.32 0 0 0.320225 0 3.8147e-06)"
     d="M1550.14 391.722L1553.84 390.301C1558.77 390.186 1562.5 390.168 1567.23 392.349L1569.09 396.265C1567.3 399.807 1565.21 401.051 1561.84 401.679C1557.6 402.472 1555.51 401.135 1552.21 398.201L1550.14 391.722Z"
     id="path75" />
  <path
     fill="#EEEEED"
     transform="matrix(0.32 0 0 0.320225 0 3.8147e-06)"
     d="M1498.37 420.942L1502.7 424.574C1503.17 429.191 1503.16 429.639 1500.7 433.551C1499.04 436.192 1496.99 437.595 1494.71 439.328L1490.25 439.484C1488.12 434.442 1489.62 432.053 1490.79 426.695L1498.37 420.942Z"
     id="path77" />
  <path
     fill="#EEEEED"
     transform="matrix(0.32 0 0 0.320225 0 3.8147e-06)"
     d="M1514.15 410.399L1536.83 397.763C1542.22 398.16 1545.12 397.705 1549.75 401.245C1549.03 405.46 1548.21 405.662 1545.33 407.92C1539.61 412.418 1520.4 424.49 1513.94 423.669C1513.45 423.607 1512.99 423.371 1512.52 423.222C1511.07 417.49 1512.4 415.859 1514.15 410.399Z"
     id="path79" />
  <path
     fill="#EEEEED"
     transform="matrix(0.32 0 0 0.320225 0 3.8147e-06)"
     d="M1423.32 496.763C1438.67 473.082 1459.17 453.663 1479.05 436.046L1483.24 439.889C1481.27 450.317 1471.48 458.525 1464.23 463.995C1457.98 468.705 1449.69 472.876 1444.27 478.822C1438.49 485.177 1433.7 494.196 1426.87 498.919L1423.32 496.763Z"
     id="path81" />
  <path
     fill="#EEEEED"
     transform="matrix(0.32 0 0 0.320225 0 3.8147e-06)"
     d="M1888.65 730.628L1887.21 735.155L1884.19 734.613C1879.75 728.015 1851.62 653.756 1848.8 643.409L1849.85 642.255C1856.64 650.591 1858.62 664.33 1864.33 674.099L1864.77 672.76C1863.57 667.493 1862.39 662.475 1860.2 657.671C1854.77 645.712 1848.94 632.937 1845.33 619.974L1847.62 619.263C1864.03 647.176 1879.06 697.493 1888.65 730.628Z"
     id="path83" />
  <defs
     id="defs90">
    <linearGradient
       id="gradient_5"
       gradientUnits="userSpaceOnUse"
       x1="1729.3534"
       y1="2722.0073"
       x2="1477.3279"
       y2="1758.5129">
      <stop
         offset="0"
         stop-color="#BABABA"
         id="stop85" />
      <stop
         offset="1"
         stop-color="#F5F5F5"
         id="stop87" />
    </linearGradient>
  </defs>
  <path
     fill="url(#gradient_5)"
     transform="matrix(0.32 0 0 0.320225 0 3.8147e-06)"
     d="M1241.53 1820.04C1310.31 1817.19 1379.59 1819.42 1448.44 1819.45C1523.69 1819.47 1599.35 1817.56 1674.55 1820.08C1705.46 1817.97 1736.96 1819.62 1767.94 1819.68C1831.16 1819.79 1894.42 1820.47 1957.63 1819.61L1958.43 1929.21C1958.47 1950.47 1957.72 1972.21 1959.16 1993.39C1956.7 2049.48 1958.63 2106.94 1958.59 2163.16L1958.35 2488.75L1958.66 2586.76C1958.79 2605.61 1960.73 2627.77 1957.81 2646.12C1936.69 2643.11 1914.28 2644.92 1892.99 2645.07L1782.74 2645.61L1425.09 2645.53C1366.31 2645.46 1300.14 2649.13 1242.07 2644.61C1240.7 2613.28 1241.63 2581.41 1241.67 2550.03L1241.73 2388.53C1241.68 2274.82 1239.18 2160.25 1242.1 2046.62C1239.38 2023.53 1241.44 1996.49 1241.45 1973.02L1241.53 1820.04Z"
     id="path92" />
  <path
     fill="#EEEEED"
     transform="matrix(0.32 0 0 0.320225 0 3.8147e-06)"
     d="M1793.53 1937.85C1795.82 1936.59 1798.19 1936.2 1800.65 1935.59L1802.35 1938.03L1801.3 1945.83L1797.62 1946.06C1797.28 1945.1 1795.75 1940.7 1795.31 1939.94C1794.84 1939.12 1794.12 1938.55 1793.53 1937.85Z"
     id="path94" />
  <path
     fill="#EEEEED"
     transform="matrix(0.32 0 0 0.320225 0 3.8147e-06)"
     d="M1954.01 1852.59C1957.14 1858.15 1956.81 2016.08 1954.98 2033.63L1954.69 2016.32C1954.79 2009.79 1955.25 2003.03 1954.07 1996.62C1954 2000.64 1953.77 2004.29 1953.16 2008.25L1952.51 2007.51C1948.73 1996.13 1948.5 1983.27 1947.63 1971.1C1944.56 1928.42 1945.48 1894.21 1954.01 1852.59Z"
     id="path96" />
  <path
     fill="#EEEEED"
     transform="matrix(0.32 0 0 0.320225 0 3.8147e-06)"
     d="M1241.53 1820.04C1310.31 1817.19 1379.59 1819.42 1448.44 1819.45C1523.69 1819.47 1599.35 1817.56 1674.55 1820.08C1674.02 1820.32 1673.49 1820.56 1672.97 1820.79C1652.16 1829.78 1610.71 1825.2 1587.35 1825.2L1409.96 1825.12C1383.43 1825.1 1356.26 1823.37 1329.83 1824.74C1320.84 1825.21 1306.29 1824.96 1298.42 1830.64L1298.51 1835.08C1301.41 1837.93 1299.82 1837.44 1302.45 1837.31C1308.56 1836.99 1336.1 1846.7 1346.03 1848.48C1374.77 1853.63 1403.69 1854.58 1432.67 1855.88C1442.16 1856.3 1451.64 1857.79 1461.13 1857.3C1467.78 1856.95 1474.19 1859.74 1480.27 1862.75C1485.19 1865.19 1492.12 1862.41 1497.15 1861.16C1521.94 1854.99 1567.57 1859.4 1593.69 1862.14C1606.05 1863.43 1617.86 1868.3 1630.11 1870.32C1647.73 1873.22 1665.68 1873.41 1683.37 1875.85C1717.31 1880.54 1751.84 1888.27 1785.2 1896.93C1799.49 1900.65 1817.03 1900.75 1829.88 1909.86C1828.2 1912.68 1826.68 1915.29 1824.68 1917.8C1823.31 1913.82 1823.76 1912.44 1820.39 1910.65C1814.99 1913.27 1809.97 1915.6 1806.51 1921.55C1810.37 1926.33 1813.61 1922.03 1816.8 1928.32L1815.6 1930.5L1812.12 1927.64C1810.3 1929.34 1809.36 1930.35 1807.99 1932.67C1805.24 1927.74 1805.67 1922.71 1802.08 1918.39C1795.39 1920.47 1792.16 1937.14 1785.85 1935.8C1782.67 1935.12 1783.94 1935.07 1781.14 1936.03C1784.75 1939.65 1787.59 1936.53 1790.7 1940.32C1790.55 1945.3 1790.91 1950.58 1788.8 1955.01C1784.83 1956.63 1782.77 1955.8 1778.79 1954.93C1774.29 1956.58 1771.56 1960.21 1768.22 1964.03L1767.45 1960.6C1763.31 1959.5 1761.38 1959.89 1757.79 1962.94C1757.1 1963.52 1754.94 1965.88 1754.33 1966.49C1750.66 1970.26 1748.32 1970.71 1743.72 1971.59C1741 1972.1 1739.79 1973.16 1737.47 1974.88C1728.43 1981.59 1718.48 1988.61 1707.83 1989.57C1683.39 1991.77 1661.21 2008.21 1636.42 2009.64C1627.31 2020.99 1628.45 2020.76 1615.05 2020.82C1611.8 2020.83 1609.82 2020.86 1606.99 2018.7C1604.81 2021.65 1604.39 2021.19 1604.22 2025.31C1604.07 2028.63 1603.68 2030.39 1602.61 2033.35L1603.52 2029.42L1600.27 2032.19L1597.66 2028.46C1594.74 2032.74 1597.51 2034.3 1593.25 2037.9C1589.08 2037.67 1585.82 2036.67 1581.84 2035.26C1577.42 2038.36 1574.5 2044.16 1569.53 2044.96L1560.15 2038.42C1554.59 2040.99 1551.37 2046.73 1546.18 2049.28C1542.38 2051.15 1520.8 2056.23 1516.37 2056.85C1515.9 2056.91 1513.43 2056.42 1512.67 2056.32C1503.83 2055.09 1487.95 2053.3 1479.56 2056.14C1479.51 2056.86 1479.47 2057.58 1479.4 2058.29C1478.96 2063.06 1478.02 2064.69 1475.2 2067.7C1474.69 2067.3 1474.2 2066.89 1473.69 2066.5C1471.43 2064.79 1472.36 2065.34 1469.63 2064.56C1467.77 2068.04 1468.13 2068.23 1468.07 2072.14C1462.61 2069.94 1461.25 2065.27 1455.66 2067.64C1451.68 2069.33 1447.83 2075.38 1444.05 2076.7C1437.1 2079.13 1434.18 2071.39 1425.66 2077.23C1420.16 2081 1415.59 2077.18 1412.37 2084.57L1413.38 2089.09C1411.21 2087.86 1410.96 2087.19 1409.64 2084.86C1406.63 2086.09 1406.74 2085.63 1404.54 2088.89L1404.04 2086.91L1409.05 2082.43L1409.25 2079.56C1405.26 2078.66 1405.63 2079.2 1402.24 2081.27L1397.89 2092.66C1393.21 2094.27 1391.14 2093.06 1386.73 2091.16C1385.07 2094.36 1384.3 2096.98 1383.54 2100.65C1378.87 2101.86 1377.5 2095.57 1374.53 2098.84L1374.43 2104.21L1371.98 2102.57C1370.15 2104.32 1368.31 2106.05 1366.51 2107.83C1357.26 2116.92 1345.9 2124.19 1333.84 2124.03C1331.99 2122.79 1330.18 2121.54 1328.38 2120.2C1314.69 2133.16 1301.42 2139.28 1283.6 2136.57C1277.61 2135.66 1265.46 2127.2 1260.75 2129.08C1252.05 2147.58 1250.43 2185.11 1249.83 2206.68L1247.75 2207.41C1239.05 2180.61 1250.52 2072.39 1242.1 2046.62C1239.38 2023.53 1241.44 1996.49 1241.45 1973.02L1241.53 1820.04Z"
     id="path98" />
  <defs
     id="defs105">
    <linearGradient
       id="gradient_6"
       gradientUnits="userSpaceOnUse"
       x1="1891.6765"
       y1="3478.7812"
       x2="1310.7614"
       y2="1272.9008">
      <stop
         offset="0"
         stop-color="#FD701C"
         id="stop100" />
      <stop
         offset="1"
         stop-color="#FC9643"
         id="stop102" />
    </linearGradient>
  </defs>
  <path
     fill="url(#gradient_6)"
     transform="matrix(0.32 0 0 0.320225 0 3.8147e-06)"
     d="M2159.22 1371.61C2178.38 1384.8 2198.83 1395.75 2218.33 1408.26C2236.35 1419.81 2253.71 1432.96 2271.86 1444.17C2318.23 1479.7 2363.33 1516.63 2405.89 1558.84C2561.96 1713.63 2679.36 1922.37 2724.44 2163.46C2771.29 2413.96 2727.36 2677.27 2616.42 2893.31C2459.2 3199.45 2187.95 3393.45 1904.42 3472.54C1691.02 3532.06 1459.51 3527.31 1248.01 3458.31C1187.03 3438.41 1128.65 3412.36 1070.15 3383.65C1054.89 3373.57 1037.88 3365.71 1022.15 3356.6C994.544 3340.61 967.44 3323.12 941.008 3304.4C770.469 3183.65 622.863 3008.49 536.637 2789.8C446.748 2561.83 431.484 2297.98 500.142 2058.39C571.063 1810.91 717.007 1608.19 896.583 1468.33C943.039 1432.15 991.334 1401.44 1040.87 1372.21L1041.77 1442.48C1004.1 1470.02 966.058 1497.3 931.306 1530.23C771.134 1671.06 640.772 1890.22 608.729 2131.88C577.487 2367.5 622.436 2590.94 736.557 2784.31C893.968 3051.04 1149.06 3209.86 1410.66 3261.1C1709.17 3319.58 2025.55 3238.28 2271.31 3020.29C2300.81 2994.14 2332.56 2964.22 2357.42 2931.58C2393.15 2897.57 2443.32 2820.06 2469.71 2773.78C2573.47 2591.81 2625.7 2362.36 2593.11 2141.43C2558.1 1904.09 2450.23 1701.73 2295.3 1554.05C2270.08 1530.01 2243.65 1506.92 2216.67 1485.93C2197.61 1471.1 2177.75 1457.76 2159.17 1442.03C2159.54 1418.54 2159.45 1395.1 2159.22 1371.61Z"
     id="path107" />
  <defs
     id="defs114">
    <linearGradient
       id="gradient_7"
       gradientUnits="userSpaceOnUse"
       x1="1950.1565"
       y1="3090.5991"
       x2="1255.6367"
       y2="-28.22016">
      <stop
         offset="0"
         stop-color="#C2C2C2"
         id="stop109" />
      <stop
         offset="1"
         stop-color="white"
         id="stop111" />
    </linearGradient>
  </defs>
  <path
     fill="url(#gradient_7)"
     transform="matrix(0.32 0 0 0.320225 0 3.8147e-06)"
     d="M1168.3 283.926C1172.11 278.797 1175.98 273.725 1180 268.828C1290.24 134.447 1448.11 45.9907 1604.53 45.6529C1721.91 45.3995 1849.54 106.292 1944.01 189.934C1975.93 218.197 2004.3 250.471 2032.18 284.43L2608.45 284.212L2781.55 284.104C2816 284.086 2851.98 281.379 2886.14 287.005C2926.16 293.599 2966.18 310.616 2999.66 338.474C3028.18 362.199 3051.19 391.431 3066.59 429.292C3069.41 436.236 3073 443.618 3074.19 451.281C3069.91 456.972 3070.76 460.877 3071.1 468.479C3074.11 535.382 3073.21 600.939 3073.35 667.848L3074.23 921.701L3077.18 1543.5L3077.99 1782.07C3078.1 1818.64 3074.91 1857.6 3078.36 1893.95C3073.56 1899.93 3072.01 1908.48 3071.37 1916.64C3069.88 1935.54 3070.89 1955.39 3071.01 1974.37L3071.47 2070.73L3072.88 2394.88C3073.09 2421.05 3073.02 2447.01 3072.34 2473.18C3071.88 2491.18 3070.31 2510.91 3071.64 2528.82C3071.95 2533.07 3072.42 2534.29 3074.44 2537.58C3073.03 2560.31 3068.74 2583.48 3065.06 2605.8C3052.54 2681.75 3034.81 2754.21 3011.21 2826.11C3010.4 2825.56 3009.48 2825.21 3008.79 2824.46C3003.78 2819.04 3008.7 2802.43 3010.27 2795.78C3013.89 2780.39 3020.91 2764.56 3025.1 2747.87C3038.96 2692.76 3070.8 2535.67 3065.85 2481.52L3062.69 2480.24C3060.56 2484.69 3058.86 2488.66 3054.99 2491.11C3054.33 2491.52 3052.58 2492.52 3051.96 2493.01C3046.36 2497.36 3046.44 2499.44 3045.47 2506.84L3042.78 2506.56L3040.29 2499.32C3037.13 2497.59 3036.77 2497.41 3033.38 2498.07L3031.26 2504.97C3028.14 2503.65 3028.71 2503.17 3027.34 2499.74C3025.89 2501.39 3026.53 2500.32 3025.73 2503.24C3027.99 2507.18 3029.76 2510.71 3031.4 2515.13C3028.53 2521.15 3027.54 2517.4 3023.78 2519.88C3018.94 2523.07 3025.84 2520 3019.83 2522.36C3000.85 2509.27 3013.71 2493.37 3005.03 2475.34C2999.19 2463.21 3007.29 2465.95 3006.54 2455.23C3002.82 2454.44 3004.62 2455.03 3001.13 2453.49L3000.92 2450.39L3004.14 2446.47C3004.03 2440.05 2999.19 2436.03 2996.46 2430.61C2994.58 2426.89 2994.3 2427.26 2995.22 2422.8L2998.15 2421.41L2999.23 2425.68C3002.01 2417 2989.97 2405.85 2989.36 2395.46C2991.16 2392.59 2993.5 2392.42 2996.23 2391.24L2995.79 2389.97C2993.06 2388.27 2990.57 2386.63 2988.11 2384.38C2987.47 2378.66 2986.89 2372.96 2986.36 2367.22L2984.29 2366.28L2978.88 2371.79L2976.46 2371.4C2973.87 2357.97 2979.34 2342.46 2977.09 2329.04C2976.22 2323.84 2975.23 2318.66 2974.4 2313.43L2974.64 2313.63C2970.28 2257.75 2973.27 2198.91 2973.1 2142.65L2972.36 1806.25L2969.87 780.228C2969.8 746.156 2972.45 525.038 2967.94 510.763C2963.84 485.196 2956.27 462.827 2940.96 444.201C2923.57 423.038 2900.27 409.095 2876.07 404.673C2841.77 398.403 2804.88 401.415 2770.24 401.433L2592.22 401.563L1971.02 401.421C1950.42 371.611 1928.9 343.441 1905.07 317.435C1821.5 226.226 1694.6 156.319 1581.68 164.435C1485.23 171.367 1382.86 228.901 1308.72 303.424C1279.08 333.216 1253.63 366.462 1228.17 401.473L609.119 401.618L429.728 401.556C400.901 401.555 368.956 398.313 340.541 403.308C309.609 404.005 279.369 418.67 257.773 446.189C243.327 464.597 235.053 485.487 232.988 510.981C230.788 538.16 231.859 566.359 231.842 593.693L231.812 735.536L231.735 1186.93L231.436 1975.97C231.437 2114.62 228.914 2254.14 232.157 2392.71C232.9 2424.47 234.868 2456.17 236.811 2487.85C243.065 2552.39 253.761 2616.45 268.9 2678.75C283.548 2737.15 300.74 2792.66 321.293 2848.34C329.159 2869.65 340.446 2890.5 347.171 2912.11C396.741 3018.22 452.744 3116 521.702 3204.82C546.283 3236.48 573.791 3264.56 598.393 3295.86L600.889 3298.01C621.019 3315.52 639.304 3337.8 658.72 3356.66C693.435 3390.4 730.282 3421.42 767.823 3450.25C798.286 3473.64 829.542 3495.16 861.381 3515.6C876.175 3525.1 902.16 3538.06 914.592 3549.7L913.072 3553.19C880.379 3547.31 725.668 3434.31 692.78 3404.86C676.428 3390.21 619.317 3332.52 605.313 3326C602.701 3328.98 602.785 3327.83 602.489 3332.69C607.556 3334.97 607.698 3334.39 610.008 3340.25C610.049 3348.87 608.376 3358.56 605.485 3366.4C602.862 3367.99 602.509 3369.21 599.62 3368.02L601.642 3359.13C599.084 3358.32 600.43 3358.34 598.236 3358.94C595.742 3359.62 593.589 3359.33 591.066 3359.13L589.486 3360.92L591.256 3367.62L589.739 3369.59C584.462 3368.07 576.773 3364.64 572.549 3360.49C570.194 3365.24 568.955 3366.41 564.487 3367.81C562.424 3368.46 561.127 3368.68 559.101 3369.09C556.85 3371.38 556.107 3372.44 555.371 3375.93C550.593 3376.53 545.47 3371.35 541.48 3368.32C541.732 3369.52 542.088 3370.7 542.236 3371.93C542.33 3372.72 542.212 3373.52 542.2 3374.31L539.133 3374.6C539.992 3378.84 541.325 3381.32 543.728 3384.44C559.225 3404.56 579.477 3420.69 597.063 3437.97C607.977 3448.69 617.863 3460.99 629.078 3471.24C646.946 3487.57 666.58 3500.82 682.67 3519.95C690.066 3528.74 700.667 3525.88 702.893 3540.39C706.306 3544.14 708.717 3546.18 712.949 3548.33C717.083 3546.62 718.973 3546.94 722.952 3549.39C742.141 3561.21 757.92 3582.72 778.264 3591.82C781.279 3593.17 782.638 3594.26 784.963 3596.88L785.165 3599.77C782.526 3600.91 781.561 3601.15 778.901 3601.19C659.148 3525.99 548.332 3422.22 453.122 3306.26C293.222 3111.51 171.448 2862.31 131.755 2588.1C117.368 2488.72 114.376 2391.26 114.23 2290.57L114.046 1031.69L114.579 663.687L114.811 556.79C114.898 533.944 114.008 509.571 116.883 486.98C122.641 441.747 141.061 402.005 167.471 369.924C201.414 328.692 246.87 301.06 293.763 290.385C335.629 280.854 379.499 283.74 421.9 283.781L586.157 284.028L1168.3 283.926Z"
     id="path116" />
  <path
     fill="#BDBDBD"
     transform="matrix(0.32 0 0 0.320225 0 3.8147e-06)"
     d="M517.008 3346.76L520.512 3345.18L519.688 3349.65L517.259 3350.91L517.008 3346.76Z"
     id="path118" />
  <path
     fill="#BDBDBD"
     transform="matrix(0.32 0 0 0.320225 0 3.8147e-06)"
     d="M3062.69 2480.24C3061.22 2475.23 3060.04 2474.84 3061.89 2469.75L3064.15 2468.91L3066.49 2471.51C3064.93 2474.49 3063.39 2476.8 3062.69 2480.24Z"
     id="path120" />
  <path
     fill="#BDBDBD"
     transform="matrix(0.32 0 0 0.320225 0 3.8147e-06)"
     d="M529.383 3346.08C530.926 3349.79 532.082 3352.48 534.39 3355.61C534.935 3356.35 535.522 3357.03 536.088 3357.75L535.685 3360.61L529.083 3363.67C528.734 3353.07 525.048 3357.53 524.083 3351.05L529.383 3346.08Z"
     id="path122" />
  <path
     fill="#EEEEED"
     transform="matrix(0.32 0 0 0.320225 0 3.8147e-06)"
     d="M268.9 2678.75C268.712 2682.21 268.38 2685.51 267.882 2688.92C264.546 2685.86 265.827 2677.12 263.256 2671.87L262.559 2677.63C263.786 2680.87 263.974 2681.87 264.132 2685.26C254.134 2671.88 233.318 2550.91 232.786 2528.96C232.758 2527.77 232.762 2526.58 232.738 2525.39C232.736 2525.29 232.719 2525.19 232.71 2525.1L235.077 2525.53C236.878 2531.28 237.523 2536.12 237.933 2542.24C239.248 2561.87 245.451 2580.32 246.337 2599.86C246.368 2600.54 246.38 2601.23 246.401 2601.91C251.177 2573.51 226.544 2509.62 236.811 2487.85C243.065 2552.39 253.761 2616.45 268.9 2678.75Z"
     id="path124" />
  <path
     fill="#BDBDBD"
     transform="matrix(0.32 0 0 0.320225 0 3.8147e-06)"
     d="M598.393 3295.86C597.28 3296.86 595.901 3297.4 594.635 3298.07C584.788 3288.13 573.427 3280.34 563.997 3269.82C554.445 3259.15 547.925 3245.79 539.144 3234.39C529.998 3222.53 518.028 3213.62 508.561 3201.83C495.163 3185.15 483.004 3165.9 470.609 3148.01C430.349 3089.9 392.874 3032.06 363.978 2964.15C358.014 2950.13 349.229 2936.43 345.591 2921.12C344.518 2916.6 345.368 2916.04 347.171 2912.11C396.741 3018.22 452.744 3116 521.702 3204.82C546.283 3236.48 573.791 3264.56 598.393 3295.86Z"
     id="path126" />
</svg>
